<?xml version="1.0" encoding="UTF-8" standalone="no"?>
<!-- Created with Inkscape (http://www.inkscape.org/) -->

<svg
   xmlns:dc="http://purl.org/dc/elements/1.1/"
   xmlns:cc="http://creativecommons.org/ns#"
   xmlns:rdf="http://www.w3.org/1999/02/22-rdf-syntax-ns#"
   xmlns:svg="http://www.w3.org/2000/svg"
   xmlns="http://www.w3.org/2000/svg"
   xmlns:sodipodi="http://sodipodi.sourceforge.net/DTD/sodipodi-0.dtd"
   xmlns:inkscape="http://www.inkscape.org/namespaces/inkscape"
   width="5000"
   height="861.46826"
   viewBox="0 0 5000 861.46824"
   version="1.1"
   id="svg8"
   inkscape:version="0.92.5 (2060ec1f9f, 2020-04-08)"
   sodipodi:docname="garage-logo.svg"
   inkscape:export-filename="/home/felicianotech/Projects/revidian-auto/garage-logo-1000x500.png"
   inkscape:export-xdpi="9.6000004"
   inkscape:export-ydpi="9.6000004">
  <defs
     id="defs2" />
  <sodipodi:namedview
     id="base"
     pagecolor="#ffffff"
     bordercolor="#666666"
     borderopacity="1.0"
     inkscape:pageopacity="0.0"
     inkscape:pageshadow="2"
     inkscape:zoom="0.175"
     inkscape:cx="1837.9552"
     inkscape:cy="331.581"
     inkscape:document-units="px"
     inkscape:current-layer="layer1"
     showgrid="false"
     units="px"
     inkscape:pagecheckerboard="true"
     inkscape:window-width="3728"
     inkscape:window-height="2032"
     inkscape:window-x="112"
     inkscape:window-y="54"
     inkscape:window-maximized="1"
     fit-margin-top="0"
     fit-margin-left="0"
     fit-margin-right="0"
     fit-margin-bottom="0" />
  <metadata
     id="metadata5">
    <rdf:RDF>
      <cc:Work
         rdf:about="">
        <dc:format>image/svg+xml</dc:format>
        <dc:type
           rdf:resource="http://purl.org/dc/dcmitype/StillImage" />
        <dc:title></dc:title>
      </cc:Work>
    </rdf:RDF>
  </metadata>
  <g
     inkscape:label="Layer 1"
     inkscape:groupmode="layer"
     id="layer1"
     transform="translate(4509.751,-9675.199)">
    <g
       aria-label="GARAGE"
       transform="matrix(0.70980323,0,0,0.70980323,-1374.607,8655.4024)"
       style="font-style:normal;font-variant:normal;font-weight:normal;font-stretch:normal;font-size:1333.33337402px;line-height:0;font-family:Audiowide;-inkscape-font-specification:Audiowide;letter-spacing:0px;word-spacing:0px;fill:#000000;fill-opacity:1;stroke:none"
       id="flowRoot833-6">
      <path
         d="m -3483.3261,2565.1168 q 0,18.2292 -6.5105,33.8542 -6.5104,15.625 -18.2291,27.3437 -11.0677,11.0677 -26.6927,17.5782 -15.625,6.5104 -33.8542,6.5104 h -610.6771 q -23.4375,0 -50.7813,-5.2084 -26.6927,-5.8593 -53.3854,-17.5781 -26.0416,-11.7187 -50.1302,-29.9479 -24.0885,-18.8802 -42.9687,-44.9219 -18.2292,-26.6927 -29.2969,-61.1979 -11.0677,-35.1563 -11.0677,-78.776 v -458.3334 q 0,-23.4375 5.2083,-50.1302 5.8594,-27.3438 17.5781,-53.3854 11.7188,-26.6927 30.599,-50.7813 18.8802,-24.0885 44.9219,-42.3177 26.6927,-18.8802 61.1979,-29.9479 34.5052,-11.0677 78.125,-11.0677 h 688.1511 v 169.2708 h -688.1511 q -33.2031,0 -50.7813,17.5782 -17.5781,17.5781 -17.5781,52.0833 v 457.0313 q 0,32.552 17.5781,50.7812 18.2292,17.5781 50.7813,17.5781 h 526.6927 v -212.2396 h -450.5208 v -170.5729 h 534.5052 q 18.2292,0 33.8542,7.1615 15.625,6.5104 26.6927,18.2291 11.7187,11.7188 18.2291,27.3438 6.5105,14.974 6.5105,32.5521 z"
         id="path1416"
         inkscape:connector-curvature="0" />
      <path
         d="m -2390.8782,2650.4033 h -169.2709 v -229.1667 h -595.0521 v 229.1667 h -169.2708 v -466.7969 q 0,-102.2136 35.1562,-188.1511 35.1563,-85.9375 97.6563,-147.7864 62.5,-61.849 147.7865,-96.3542 85.2864,-34.5052 186.1979,-34.5052 h 381.5104 q 17.5781,0 33.2031,6.5104 15.625,6.5104 27.3438,18.2292 11.7187,11.7187 18.2292,27.3437 6.5104,15.625 6.5104,33.2032 z m -764.323,-398.4375 h 595.0521 v -365.8855 h -297.526 q -7.8125,0 -33.2031,2.6042 -24.7396,1.9531 -57.9427,11.0677 -32.5521,9.1146 -69.0105,27.9948 -36.4583,18.8802 -67.0573,52.0833 -30.5989,33.2032 -50.7812,83.3334 -19.5313,49.4791 -19.5313,120.4427 z"
         id="path1418"
         inkscape:connector-curvature="0" />
      <path
         d="m -951.94577,1844.6741 q 0,75.3255 -18.61979,134.5703 -18.61979,59.2448 -50.78124,104.9479 -31.3151,44.8568 -72.7865,77.0183 -41.4713,32.1614 -87.1745,53.3203 -44.8567,20.3125 -91.4062,29.6224 -45.7031,9.3099 -86.3281,9.3099 l 459.57029,396.9401 h -340.23439 l -458.724,-396.9401 h -158.2682 v -220.0521 h 497.6563 q 41.4713,-3.3854 75.3255,-16.9271 34.7005,-14.388 59.2448,-38.086 25.3906,-23.6979 38.9323,-56.7057 13.5416,-33.8541 13.5416,-77.0182 V 1705.872 q 0,-18.6198 -5.0781,-27.9297 -4.2318,-10.1562 -11.8489,-14.388 -6.7709,-5.0781 -15.2344,-5.9245 -7.6172,-0.8463 -14.388,-0.8463 h -726.1719 v 993.6198 h -220.0521 V 1547.6038 q 0,-22.8516 8.4635,-43.1641 8.4636,-20.3125 22.8516,-35.5469 15.2344,-15.2343 35.5469,-23.6979 20.3125,-8.4635 44.0104,-8.4635 h 835.3516 q 73.6328,0 124.414,27.0833 50.7813,26.237 82.0964,66.862 32.16144,39.7786 45.70311,86.3281 14.38802,46.5495 14.38802,87.1745 z"
         style="font-style:normal;font-variant:normal;font-weight:normal;font-stretch:normal;font-size:1733.33337402px;font-family:Audiowide;-inkscape-font-specification:Audiowide"
         id="path1420"
         inkscape:connector-curvature="0" />
      <path
         d="M 459.7729,2650.4033 H 239.72081 v -297.9167 h -773.56773 v 297.9167 H -753.899 v -606.836 q 0,-132.8776 45.70312,-244.5963 45.70313,-111.7188 126.95313,-192.1224 81.25,-80.4037 192.1224,-125.2605 110.8724,-44.8567 242.0573,-44.8567 H 348.9005 q 22.85156,0 43.16406,8.4635 20.3125,8.4636 35.54688,23.6979 15.23438,15.2344 23.69792,35.5469 8.46354,20.3125 8.46354,43.1641 z m -993.61982,-517.9688 h 773.56773 v -475.651 h -386.78386 q -10.15625,0 -43.16407,3.3854 -32.16146,2.539 -75.32552,14.388 -42.31771,11.849 -89.71354,36.3932 -47.39584,24.5443 -87.17448,67.7084 -39.77865,43.164 -66.01563,108.3333 -25.39063,64.3229 -25.39063,156.5755 z"
         style="font-style:normal;font-variant:normal;font-weight:normal;font-stretch:normal;font-size:1733.33337402px;font-family:Audiowide;-inkscape-font-specification:Audiowide"
         id="path1422"
         inkscape:connector-curvature="0" />
      <path
         d="m 1607.1035,2565.1168 q 0,18.2292 -6.5104,33.8542 -6.5104,15.625 -18.2291,27.3437 -11.0677,11.0677 -26.6927,17.5782 -15.625,6.5104 -33.8542,6.5104 H 911.13998 q -23.4375,0 -50.78125,-5.2084 -26.69271,-5.8593 -53.38542,-17.5781 -26.04166,-11.7187 -50.13021,-29.9479 -24.08854,-18.8802 -42.96875,-44.9219 -18.22916,-26.6927 -29.29687,-61.1979 -11.06771,-35.1563 -11.06771,-78.776 v -458.3334 q 0,-23.4375 5.20833,-50.1302 5.85938,-27.3438 17.57813,-53.3854 11.71875,-26.6927 30.59896,-50.7813 18.88021,-24.0885 44.92187,-42.3177 26.69271,-18.8802 61.19792,-29.9479 34.50521,-11.0677 78.125,-11.0677 H 1599.291 v 169.2708 H 911.13998 q -33.20312,0 -50.78125,17.5782 -17.57812,17.5781 -17.57812,52.0833 v 457.0313 q 0,32.552 17.57812,50.7812 18.22917,17.5781 50.78125,17.5781 H 1437.8327 V 2268.8928 H 987.31186 v -170.5729 h 534.50524 q 18.2292,0 33.8542,7.1615 15.625,6.5104 26.6927,18.2291 11.7187,11.7188 18.2291,27.3438 6.5104,14.974 6.5104,32.5521 z"
         id="path1424"
         inkscape:connector-curvature="0" />
      <path
         d="m 2551.114,2268.8928 h -534.5053 v -170.5729 h 534.5053 z m 76.1718,381.5105 h -610.6771 q -35.1562,0 -76.8229,-12.3698 -41.6667,-12.3698 -77.4739,-40.3646 -35.1563,-28.6458 -59.2448,-73.5677 -23.4375,-45.5729 -23.4375,-111.3281 V 1802.096 q 0,-17.5782 6.5104,-33.2032 6.5104,-15.625 17.5781,-27.3437 11.7188,-11.7188 27.3438,-18.2292 15.625,-6.5104 33.8541,-6.5104 h 762.3698 v 169.2708 h -678.3854 v 526.6928 q 0,33.2031 17.5781,50.7812 17.5781,17.5781 51.4323,17.5781 h 609.375 z"
         id="path1426"
         inkscape:connector-curvature="0" />
    </g>
  </g>
</svg>
