<?xml version="1.0" encoding="UTF-8" standalone="no"?>
<!-- Created with Inkscape (http://www.inkscape.org/) -->

<svg
   width="232.67986"
   height="99.009926"
   viewBox="0 0 232.67986 99.009926"
   version="1.1"
   id="svg1"
   xml:space="preserve"
   inkscape:export-filename="test.png"
   inkscape:export-xdpi="143.08969"
   inkscape:export-ydpi="143.08969"
   inkscape:version="1.3.2 (1:1.3.2+202311252150+091e20ef0f)"
   sodipodi:docname="rm-logo-dark.svg"
   xmlns:inkscape="http://www.inkscape.org/namespaces/inkscape"
   xmlns:sodipodi="http://sodipodi.sourceforge.net/DTD/sodipodi-0.dtd"
   xmlns="http://www.w3.org/2000/svg"
   xmlns:svg="http://www.w3.org/2000/svg"><sodipodi:namedview
     id="namedview1"
     pagecolor="#505050"
     bordercolor="#ffffff"
     borderopacity="1"
     inkscape:showpageshadow="0"
     inkscape:pageopacity="0"
     inkscape:pagecheckerboard="1"
     inkscape:deskcolor="#505050"
     inkscape:document-units="px"
     inkscape:zoom="1"
     inkscape:cx="251.5"
     inkscape:cy="-145.5"
     inkscape:window-width="1978"
     inkscape:window-height="1083"
     inkscape:window-x="1150"
     inkscape:window-y="247"
     inkscape:window-maximized="1"
     inkscape:current-layer="layer1"
     showguides="true"
     showgrid="false"><inkscape:grid
       id="grid1"
       units="px"
       originx="-729.40714"
       originy="-1268.1269"
       spacingx="1"
       spacingy="1"
       empcolor="#0099e5"
       empopacity="0.30196078"
       color="#0099e5"
       opacity="0.14901961"
       empspacing="5"
       dotted="false"
       gridanglex="30"
       gridanglez="30"
       visible="false" /></sodipodi:namedview><defs
     id="defs1"><rect
       x="0.33121744"
       y="0.16142346"
       width="1.4020648"
       height="0.25126138"
       id="rect1039" /><rect
       x="370.73871"
       y="164.30466"
       width="737.26453"
       height="193.79523"
       id="rect9720" /><rect
       x="370.73871"
       y="164.30466"
       width="485.47348"
       height="170.04137"
       id="rect9720-8" /><rect
       x="370.73871"
       y="164.30466"
       width="485.47348"
       height="170.04137"
       id="rect9720-8-3" /><rect
       x="370.73871"
       y="164.30466"
       width="737.26453"
       height="193.79523"
       id="rect9720-6" /><rect
       x="370.73871"
       y="164.30466"
       width="485.47348"
       height="170.04137"
       id="rect9720-8-9" /><rect
       x="370.73871"
       y="164.30466"
       width="737.26453"
       height="193.79523"
       id="rect9720-2" /><rect
       x="370.73871"
       y="164.30466"
       width="485.47348"
       height="170.04137"
       id="rect9720-8-8" /><rect
       x="370.73871"
       y="164.30466"
       width="737.26453"
       height="193.79523"
       id="rect9720-4" /><rect
       x="370.73871"
       y="164.30466"
       width="485.47348"
       height="170.04137"
       id="rect9720-8-5" /><rect
       x="370.73871"
       y="164.30466"
       width="737.26453"
       height="193.79523"
       id="rect9720-69" /><rect
       x="370.73871"
       y="164.30466"
       width="485.47348"
       height="170.04137"
       id="rect9720-8-84" /><rect
       x="370.73871"
       y="164.30466"
       width="737.26453"
       height="193.79523"
       id="rect9720-3" /><rect
       x="370.73871"
       y="164.30466"
       width="485.47348"
       height="170.04137"
       id="rect9720-8-7" /><rect
       x="370.73871"
       y="164.30466"
       width="737.26453"
       height="193.79523"
       id="rect9720-27" /><rect
       x="370.73871"
       y="164.30466"
       width="485.47348"
       height="170.04137"
       id="rect9720-8-3-2" /><rect
       x="370.73871"
       y="164.30466"
       width="737.26453"
       height="193.79523"
       id="rect9720-6-2" /><rect
       x="370.73871"
       y="164.30466"
       width="485.47348"
       height="170.04137"
       id="rect9720-8-7-9" /><rect
       x="370.73871"
       y="164.30466"
       width="737.26453"
       height="193.79523"
       id="rect9720-27-4" /><rect
       x="370.73871"
       y="164.30466"
       width="485.47348"
       height="170.04137"
       id="rect9720-8-3-2-8" /><rect
       x="370.73871"
       y="164.30466"
       width="737.26453"
       height="193.79523"
       id="rect9720-6-2-1" /><rect
       x="370.73871"
       y="164.30466"
       width="485.47348"
       height="170.04137"
       id="rect9720-8-86" /><rect
       x="370.73871"
       y="164.30466"
       width="737.26453"
       height="193.79523"
       id="rect9720-88" /></defs><g
     inkscape:label="Layer 1"
     inkscape:groupmode="layer"
     id="layer1"
     transform="translate(-302.19311,-976.5044)"><path
       inkscape:connector-curvature="0"
       id="path820-7-8-6-5-9-9-4-5-2-5-2-2"
       d="m 356.07618,1067.1448 c -5.28198,-4.6337 -11.9784,-10.508 -14.88157,-13.0541 -2.90287,-2.5465 -5.27812,-4.707 -5.27712,-4.801 6.9e-4,-0.1046 0.53227,-0.4468 1.34198,-0.8555 5.53861,-2.8324 10.92851,-6.2172 14.717,-9.2446 1.54852,-1.2366 4.09674,-3.8181 4.83525,-4.8979 1.17574,-1.7194 1.46376,-2.5996 1.80594,-5.5196 0.40871,-3.5045 -0.0941,-5.9663 -1.46762,-7.2048 -0.74139,-0.6653 -1.48654,-0.9125 -2.71654,-0.903 -0.53227,0.01 -1.17851,0.065 -1.43227,0.1426 -0.48486,0.1426 0.5798,-1.0066 -18.74345,20.0277 -2.62911,2.861 -5.86841,6.3846 -7.19812,7.8303 -4.22118,4.588 -23.41346,25.478 -24.0301,26.156 -0.52278,0.5703 -0.83645,0.7889 -0.83645,0.5798 0,-0.038 0.78892,-2.0312 1.76131,-4.4293 0.96851,-2.3982 2.9797,-7.395 4.4702,-11.1047 1.4895,-3.7098 3.59861,-8.9566 4.68693,-11.6599 1.08831,-2.7033 5.15079,-12.8117 9.0298,-22.4627 3.87901,-9.6508 7.8901,-19.6304 8.91574,-22.1766 1.02455,-2.5464 3.58911,-8.92524 5.69822,-14.17494 4.35237,-10.83297 5.05574,-12.56278 5.14703,-12.65466 0.16158,-0.16158 4.72703,-0.27564 8.53176,-0.21861 18.08138,0.28515 29.35594,3.83436 32.59316,10.27247 0.64644,1.28604 0.87446,2.30783 1.0703,4.81713 0.29465,3.72881 0.1996,6.29812 -0.35168,9.63981 -1.65862,10.0912 -7.29891,20.85 -16.61584,31.694 -4.57485,5.3247 -10.14119,10.7525 -15.46881,15.0837 -0.79842,0.6559 -1.45713,1.2594 -1.45713,1.3517 0,0.093 10.61396,13.4129 14.84762,20.403 4.23356,6.99 0.60851,5.2928 0.68168,5.4289 0.0752,0.133 0.0931,0.2756 0.0376,0.3041 -0.0564,0.028 -4.41505,-3.7325 -9.69683,-8.3663 z"
       style="fill:#ffffff;fill-opacity:1;stroke:none;stroke-width:0.114312"
       inkscape:export-filename="/home/felicianotech/Projects/revidian-auto/logo/logo-sample-01.png"
       inkscape:export-xdpi="384"
       inkscape:export-ydpi="384"
       sodipodi:nodetypes="cssccscccccccsccsscsccsccscsscccc" /><path
       id="rect4-3-9"
       style="fill:#ffffff;stroke-width:1.17739"
       transform="matrix(1,0,-0.46759024,0.88394534,0,0)"
       d="m 934.69385,1104.7113 h 24.75247 v 112.0091 h -24.75247 z" /><path
       id="rect4-3-7-8"
       style="fill:#1a1a1a;stroke-width:1.10696;fill-opacity:1"
       d="m 457.74612,976.50441 h 24.75248 l -52.37437,99.00989 h -24.75247 z" /><path
       id="rect4-3-1-8"
       style="fill:#1a1a1a;stroke-width:1.10696;fill-opacity:1"
       d="m 482.49861,976.50441 h -24.75247 l 52.37436,99.00989 h 24.75247 z" /></g></svg>
