<?xml version="1.0" encoding="UTF-8" standalone="no"?>
<!-- Created with Inkscape (http://www.inkscape.org/) -->

<svg
   width="60"
   height="60"
   viewBox="0 0 60 59.999999"
   version="1.1"
   id="svg1"
   inkscape:version="1.3.2 (1:1.3.2+202311252150+091e20ef0f)"
   sodipodi:docname="icon-lane.svg"
   inkscape:export-filename="moto-laws--us--vt.png"
   inkscape:export-xdpi="80"
   inkscape:export-ydpi="80"
   xmlns:inkscape="http://www.inkscape.org/namespaces/inkscape"
   xmlns:sodipodi="http://sodipodi.sourceforge.net/DTD/sodipodi-0.dtd"
   xmlns="http://www.w3.org/2000/svg"
   xmlns:svg="http://www.w3.org/2000/svg">
  <sodipodi:namedview
     id="namedview1"
     pagecolor="#505050"
     bordercolor="#ffffff"
     borderopacity="1"
     inkscape:showpageshadow="0"
     inkscape:pageopacity="0"
     inkscape:pagecheckerboard="1"
     inkscape:deskcolor="#505050"
     inkscape:document-units="px"
     inkscape:zoom="2.8284271"
     inkscape:cx="68.235804"
     inkscape:cy="103.41437"
     inkscape:window-width="1850"
     inkscape:window-height="1011"
     inkscape:window-x="70"
     inkscape:window-y="32"
     inkscape:window-maximized="1"
     inkscape:current-layer="layer1"
     showguides="true" />
  <defs
     id="defs1">
    <rect
       x="350.34531"
       y="319.13232"
       width="421.26819"
       height="31.908958"
       id="rect7" />
    <rect
       x="263.26483"
       y="335.19281"
       width="51.565868"
       height="61.291256"
       id="rect3" />
    <rect
       x="82.636536"
       y="95.108734"
       width="383.16449"
       height="51.101845"
       id="rect2" />
    <rect
       x="263.26483"
       y="335.19281"
       width="122.28263"
       height="69.751892"
       id="rect3-3" />
    <rect
       x="263.26483"
       y="335.19281"
       width="51.565868"
       height="61.291256"
       id="rect3-4" />
    <rect
       x="263.26483"
       y="335.19281"
       width="51.565868"
       height="61.291256"
       id="rect3-6" />
    <rect
       x="263.26483"
       y="335.19281"
       width="51.565868"
       height="61.291256"
       id="rect3-9" />
    <rect
       x="263.26483"
       y="335.19281"
       width="51.565868"
       height="61.291256"
       id="rect3-66" />
    <rect
       x="350.34531"
       y="319.13232"
       width="421.26819"
       height="31.908958"
       id="rect7-2" />
    <rect
       x="350.34531"
       y="319.13232"
       width="421.26819"
       height="31.908958"
       id="rect7-2-6" />
    <rect
       x="350.34531"
       y="319.13232"
       width="421.26819"
       height="31.908958"
       id="rect7-4" />
    <rect
       x="350.34531"
       y="319.13232"
       width="421.26819"
       height="31.908958"
       id="rect7-4-1" />
    <rect
       x="263.26483"
       y="335.19281"
       width="51.565868"
       height="61.291256"
       id="rect3-1" />
    <rect
       x="82.636536"
       y="95.108734"
       width="297.49365"
       height="24.691488"
       id="rect2-6" />
    <rect
       x="82.636536"
       y="95.108734"
       width="577.29626"
       height="81.933601"
       id="rect2-9" />
    <rect
       x="82.636536"
       y="95.108734"
       width="335.77216"
       height="67.819557"
       id="rect2-96" />
  </defs>
  <g
     inkscape:label="Layer 1"
     inkscape:groupmode="layer"
     id="layer1"
     transform="translate(-66.730499,-83.226173)">
    <text
       xml:space="preserve"
       transform="translate(-188.98847,166.13159)"
       id="text2-3"
       style="font-style:normal;font-variant:normal;font-weight:normal;font-stretch:normal;font-size:42.6667px;font-family:FontAwesome;-inkscape-font-specification:FontAwesome;text-align:start;letter-spacing:5px;white-space:pre;shape-inside:url(#rect3-4);display:inline;fill:#ffffff;fill-opacity:1;stroke:none;stroke-width:45" />
    <text
       xml:space="preserve"
       style="font-style:normal;font-variant:normal;font-weight:normal;font-stretch:normal;font-size:42.6667px;font-family:FontAwesome;-inkscape-font-specification:FontAwesome;text-align:start;letter-spacing:5px;text-anchor:start;opacity:1;fill:#ffffff;fill-opacity:1;stroke:none;stroke-width:45"
       x="456.84335"
       y="423.60608"
       id="text5"><tspan
         sodipodi:role="line"
         id="tspan5"
         x="456.84335"
         y="423.60608"></tspan></text>
    <!--!Font Awesome Free 6.5.1 by @fontawesome - https://fontawesome.com License - https://fontawesome.com/license/free Copyright 2024 Fonticons, Inc.-->
    <!--!Font Awesome Free 6.5.1 by @fontawesome - https://fontawesome.com License - https://fontawesome.com/license/free Copyright 2024 Fonticons, Inc.-->
    <g
       id="g32"
       inkscape:export-filename="icon-lane.png"
       inkscape:export-xdpi="160"
       inkscape:export-ydpi="160">
      <circle
         style="fill:#c41f41;fill-opacity:1;stroke:none;stroke-width:31.4128"
         id="path2-44"
         cx="96.730499"
         cy="113.22617"
         r="30" />
      <path
         d="m 94.730511,99.226144 h -4.675 c -1.69375,0 -3.20625,1.068746 -3.76875,2.662496 l -7.3625,20.78751 c -0.125,0.3625 -0.19375,0.75 -0.19375,1.13749 0,1.88126 1.53125,3.41251 3.4125,3.41251 h 12.5875 v -4 c 0,-1.10625 0.89375,-2 2,-2 1.10625,0 2,0.89375 2,2 v 4 h 12.587499 c 1.8875,0 3.4125,-1.53125 3.4125,-3.41251 0,-0.38749 -0.0688,-0.77499 -0.19375,-1.13749 l -7.3625,-20.78751 c -0.56875,-1.59375 -2.075,-2.662496 -3.76875,-2.662496 h -4.674999 v 3.999996 c 0,1.10625 -0.89375,2 -2,2 -1.10625,0 -2,-0.89375 -2,-2 z m 4,11.999996 v 4 c 0,1.10625 -0.89375,2 -2,2 -1.10625,0 -2,-0.89375 -2,-2 v -4 c 0,-1.10625 0.89375,-2 2,-2 1.10625,0 2,0.89375 2,2 z"
         id="path1-6"
         style="fill:#ffffff;fill-opacity:1;stroke-width:0.0625" />
    </g>
    <!--!Font Awesome Free 6.5.1 by @fontawesome - https://fontawesome.com License - https://fontawesome.com/license/free Copyright 2024 Fonticons, Inc.-->
  </g>
</svg>
