<?xml version="1.0" encoding="UTF-8" standalone="no"?>
<!-- Created with Inkscape (http://www.inkscape.org/) -->

<svg
   width="60"
   height="60"
   viewBox="0 0 60 59.999999"
   version="1.1"
   id="svg1"
   inkscape:version="1.3.2 (1:1.3.2+202311252150+091e20ef0f)"
   sodipodi:docname="icon-helmet.svg"
   inkscape:export-filename="moto-laws--us--vt.png"
   inkscape:export-xdpi="80"
   inkscape:export-ydpi="80"
   xmlns:inkscape="http://www.inkscape.org/namespaces/inkscape"
   xmlns:sodipodi="http://sodipodi.sourceforge.net/DTD/sodipodi-0.dtd"
   xmlns="http://www.w3.org/2000/svg"
   xmlns:svg="http://www.w3.org/2000/svg">
  <sodipodi:namedview
     id="namedview1"
     pagecolor="#505050"
     bordercolor="#ffffff"
     borderopacity="1"
     inkscape:showpageshadow="0"
     inkscape:pageopacity="0"
     inkscape:pagecheckerboard="1"
     inkscape:deskcolor="#505050"
     inkscape:document-units="px"
     inkscape:zoom="2.8284271"
     inkscape:cx="42.426407"
     inkscape:cy="-32.350135"
     inkscape:window-width="1850"
     inkscape:window-height="1011"
     inkscape:window-x="70"
     inkscape:window-y="32"
     inkscape:window-maximized="1"
     inkscape:current-layer="layer1"
     showguides="true" />
  <defs
     id="defs1">
    <rect
       x="350.34531"
       y="319.13232"
       width="421.26819"
       height="31.908958"
       id="rect7" />
    <rect
       x="263.26483"
       y="335.19281"
       width="51.565868"
       height="61.291256"
       id="rect3" />
    <rect
       x="82.636536"
       y="95.108734"
       width="383.16449"
       height="51.101845"
       id="rect2" />
    <rect
       x="263.26483"
       y="335.19281"
       width="122.28263"
       height="69.751892"
       id="rect3-3" />
    <rect
       x="263.26483"
       y="335.19281"
       width="51.565868"
       height="61.291256"
       id="rect3-4" />
    <rect
       x="263.26483"
       y="335.19281"
       width="51.565868"
       height="61.291256"
       id="rect3-6" />
    <rect
       x="263.26483"
       y="335.19281"
       width="51.565868"
       height="61.291256"
       id="rect3-9" />
    <rect
       x="263.26483"
       y="335.19281"
       width="51.565868"
       height="61.291256"
       id="rect3-66" />
    <rect
       x="350.34531"
       y="319.13232"
       width="421.26819"
       height="31.908958"
       id="rect7-2" />
    <rect
       x="350.34531"
       y="319.13232"
       width="421.26819"
       height="31.908958"
       id="rect7-2-6" />
    <rect
       x="350.34531"
       y="319.13232"
       width="421.26819"
       height="31.908958"
       id="rect7-4" />
    <rect
       x="350.34531"
       y="319.13232"
       width="421.26819"
       height="31.908958"
       id="rect7-4-1" />
    <rect
       x="263.26483"
       y="335.19281"
       width="51.565868"
       height="61.291256"
       id="rect3-1" />
    <rect
       x="82.636536"
       y="95.108734"
       width="297.49365"
       height="24.691488"
       id="rect2-6" />
    <rect
       x="82.636536"
       y="95.108734"
       width="577.29626"
       height="81.933601"
       id="rect2-9" />
    <rect
       x="82.636536"
       y="95.108734"
       width="335.77216"
       height="67.819557"
       id="rect2-96" />
  </defs>
  <g
     inkscape:label="Layer 1"
     inkscape:groupmode="layer"
     id="layer1"
     transform="translate(-67.209069,-218.05441)">
    <text
       xml:space="preserve"
       transform="translate(-188.98847,166.13159)"
       id="text2-3"
       style="font-style:normal;font-variant:normal;font-weight:normal;font-stretch:normal;font-size:42.6667px;font-family:FontAwesome;-inkscape-font-specification:FontAwesome;text-align:start;letter-spacing:5px;white-space:pre;shape-inside:url(#rect3-4);display:inline;fill:#ffffff;fill-opacity:1;stroke:none;stroke-width:45" />
    <text
       xml:space="preserve"
       style="font-style:normal;font-variant:normal;font-weight:normal;font-stretch:normal;font-size:42.6667px;font-family:FontAwesome;-inkscape-font-specification:FontAwesome;text-align:start;letter-spacing:5px;text-anchor:start;opacity:1;fill:#ffffff;fill-opacity:1;stroke:none;stroke-width:45"
       x="456.84335"
       y="423.60608"
       id="text5"><tspan
         sodipodi:role="line"
         id="tspan5"
         x="456.84335"
         y="423.60608"></tspan></text>
    <!--!Font Awesome Free 6.5.1 by @fontawesome - https://fontawesome.com License - https://fontawesome.com/license/free Copyright 2024 Fonticons, Inc.-->
    <!--!Font Awesome Free 6.5.1 by @fontawesome - https://fontawesome.com License - https://fontawesome.com/license/free Copyright 2024 Fonticons, Inc.-->
    <!--!Font Awesome Free 6.5.1 by @fontawesome - https://fontawesome.com License - https://fontawesome.com/license/free Copyright 2024 Fonticons, Inc.-->
    <g
       id="g28"
       transform="translate(-13.958404,-156.06964)"
       inkscape:export-filename="icon-helmet.png"
       inkscape:export-xdpi="160"
       inkscape:export-ydpi="160">
      <circle
         style="fill:#c41f41;fill-opacity:1;stroke:none;stroke-width:31.4128"
         id="path2-44-5"
         cx="111.16747"
         cy="404.12405"
         r="30" />
      <g
         id="g155"
         transform="matrix(0.5190423,0,0,0.5190423,-107.20786,184.75815)"
         style="fill:#ffffff;fill-opacity:1">
        <path
           id="path77"
           d="m 420.47781,409.61635 3.488,-4.30267 c 0.336,-0.41466 0.32533,-1.076 -0.0173,-1.48266 l -5.02,-5.89734 c -0.34534,-0.40533 -1.052,-0.66533 -1.57867,-0.58266 l -30.84667,4.87066 c -0.52533,0.0827 -0.608,0.40934 -0.184,0.73067 l 4.88667,3.69467 c 0.42533,0.32266 1.19733,0.63066 1.728,0.69066 l 25.97867,2.91734 c 0.52933,0.06 1.232,-0.22667 1.56533,-0.63867"
           style="fill:#ffffff;fill-opacity:1;fill-rule:nonzero;stroke:none;stroke-width:0.133333" />
        <path
           id="path78"
           d="m 419.18981,396.03235 c 0.40267,0.204 0.77067,0.46533 1.04533,0.788 l 5.02267,5.89733 c 0.88267,1.04134 0.89733,2.62134 0.0413,3.67867 l -3.48666,4.3 c -0.62267,0.76933 -1.732,1.28533 -2.756,1.28533 -0.11467,0 -0.228,-0.005 -0.336,-0.0187 l -14.73067,-1.65467 16.38267,5.844 c 0.5,0.17867 0.89066,0.75333 0.86933,1.28667 l -0.548,13.116 c -0.0227,0.53333 -0.45867,1.072 -0.97333,1.20266 l -10.98267,2.81334 c -0.51733,0.132 -1.31333,0.0333 -1.78267,-0.22267 l -5.51333,-2.996 c -0.46667,-0.25333 -0.95867,-0.876 -1.09867,-1.39067 l -0.59466,-2.21333 c -0.13867,-0.51467 -0.52,-0.592 -0.84934,-0.17733 l -5.38266,6.796 c -0.332,0.416 -0.47067,1.16666 -0.31067,1.67733 0.60533,1.91067 1.20267,3.828 1.81067,5.73867 0.6,1.888 1.2,7.76266 3.43066,8.41066 2.89734,0.836 7.64667,-0.74666 10.54934,-1.25466 4.52,-0.79867 9.03466,-1.608 13.55866,-2.37867 6.316,-1.07333 12.61867,-2.404 18.86134,-3.84933 1.70266,-0.39467 3.404,-0.81067 5.10533,-1.23867 0.5,-0.12667 0.93867,-0.64133 1.136,-1.12933 12.66266,-13.14934 6.608,-29.532 3.97333,-35.076 l -0.0747,-0.384 c -0.10267,-0.52 -0.512,-1.22667 -0.93067,-1.55467 -2.53733,-1.97333 -11.33467,-8.08667 -23.54533,-8.47867 -2.76134,-0.0893 -5.41067,0.37334 -7.89067,1.18267"
           style="fill:#ffffff;fill-opacity:1;fill-rule:nonzero;stroke:none;stroke-width:0.133333" />
      </g>
    </g>
  </g>
</svg>
