<?xml version="1.0" encoding="UTF-8" standalone="no"?>
<!-- Created with Inkscape (http://www.inkscape.org/) -->

<svg
   width="60"
   height="60"
   viewBox="0 0 60 59.999999"
   version="1.1"
   id="svg1"
   inkscape:version="1.3.2 (1:1.3.2+202311252150+091e20ef0f)"
   sodipodi:docname="icon-insurance.svg"
   inkscape:export-filename="moto-laws--us--vt.png"
   inkscape:export-xdpi="80"
   inkscape:export-ydpi="80"
   xmlns:inkscape="http://www.inkscape.org/namespaces/inkscape"
   xmlns:sodipodi="http://sodipodi.sourceforge.net/DTD/sodipodi-0.dtd"
   xmlns="http://www.w3.org/2000/svg"
   xmlns:svg="http://www.w3.org/2000/svg">
  <sodipodi:namedview
     id="namedview1"
     pagecolor="#505050"
     bordercolor="#ffffff"
     borderopacity="1"
     inkscape:showpageshadow="0"
     inkscape:pageopacity="0"
     inkscape:pagecheckerboard="1"
     inkscape:deskcolor="#505050"
     inkscape:document-units="px"
     inkscape:zoom="2.8284271"
     inkscape:cx="-13.788582"
     inkscape:cy="45.785164"
     inkscape:window-width="1850"
     inkscape:window-height="1011"
     inkscape:window-x="70"
     inkscape:window-y="32"
     inkscape:window-maximized="1"
     inkscape:current-layer="layer1"
     showguides="true" />
  <defs
     id="defs1">
    <rect
       x="350.34531"
       y="319.13232"
       width="421.26819"
       height="31.908958"
       id="rect7" />
    <rect
       x="263.26483"
       y="335.19281"
       width="51.565868"
       height="61.291256"
       id="rect3" />
    <rect
       x="82.636536"
       y="95.108734"
       width="383.16449"
       height="51.101845"
       id="rect2" />
    <rect
       x="263.26483"
       y="335.19281"
       width="122.28263"
       height="69.751892"
       id="rect3-3" />
    <rect
       x="263.26483"
       y="335.19281"
       width="51.565868"
       height="61.291256"
       id="rect3-4" />
    <rect
       x="263.26483"
       y="335.19281"
       width="51.565868"
       height="61.291256"
       id="rect3-6" />
    <rect
       x="263.26483"
       y="335.19281"
       width="51.565868"
       height="61.291256"
       id="rect3-9" />
    <rect
       x="263.26483"
       y="335.19281"
       width="51.565868"
       height="61.291256"
       id="rect3-66" />
    <rect
       x="350.34531"
       y="319.13232"
       width="421.26819"
       height="31.908958"
       id="rect7-2" />
    <rect
       x="350.34531"
       y="319.13232"
       width="421.26819"
       height="31.908958"
       id="rect7-2-6" />
    <rect
       x="350.34531"
       y="319.13232"
       width="421.26819"
       height="31.908958"
       id="rect7-4" />
    <rect
       x="350.34531"
       y="319.13232"
       width="421.26819"
       height="31.908958"
       id="rect7-4-1" />
    <rect
       x="263.26483"
       y="335.19281"
       width="51.565868"
       height="61.291256"
       id="rect3-1" />
    <rect
       x="82.636536"
       y="95.108734"
       width="297.49365"
       height="24.691488"
       id="rect2-6" />
    <rect
       x="82.636536"
       y="95.108734"
       width="577.29626"
       height="81.933601"
       id="rect2-9" />
    <rect
       x="82.636536"
       y="95.108734"
       width="335.77216"
       height="67.819557"
       id="rect2-96" />
  </defs>
  <g
     inkscape:label="Layer 1"
     inkscape:groupmode="layer"
     id="layer1"
     transform="translate(-138.14264,-147.72885)">
    <text
       xml:space="preserve"
       transform="translate(-188.98847,166.13159)"
       id="text2-3"
       style="font-style:normal;font-variant:normal;font-weight:normal;font-stretch:normal;font-size:42.6667px;font-family:FontAwesome;-inkscape-font-specification:FontAwesome;text-align:start;letter-spacing:5px;white-space:pre;shape-inside:url(#rect3-4);display:inline;fill:#ffffff;fill-opacity:1;stroke:none;stroke-width:45" />
    <text
       xml:space="preserve"
       style="font-style:normal;font-variant:normal;font-weight:normal;font-stretch:normal;font-size:42.6667px;font-family:FontAwesome;-inkscape-font-specification:FontAwesome;text-align:start;letter-spacing:5px;text-anchor:start;opacity:1;fill:#ffffff;fill-opacity:1;stroke:none;stroke-width:45"
       x="456.84335"
       y="423.60608"
       id="text5"><tspan
         sodipodi:role="line"
         id="tspan5"
         x="456.84335"
         y="423.60608"></tspan></text>
    <!--!Font Awesome Free 6.5.1 by @fontawesome - https://fontawesome.com License - https://fontawesome.com/license/free Copyright 2024 Fonticons, Inc.-->
    <!--!Font Awesome Free 6.5.1 by @fontawesome - https://fontawesome.com License - https://fontawesome.com/license/free Copyright 2024 Fonticons, Inc.-->
    <!--!Font Awesome Free 6.5.1 by @fontawesome - https://fontawesome.com License - https://fontawesome.com/license/free Copyright 2024 Fonticons, Inc.-->
    <g
       id="g30"
       transform="translate(-138.58786,-35.497375)"
       inkscape:export-filename="icon-insurance.png"
       inkscape:export-xdpi="160"
       inkscape:export-ydpi="160">
      <circle
         style="fill:#c41f41;fill-opacity:1;stroke:none;stroke-width:31.4128"
         id="path2-44-4-4"
         cx="306.7305"
         cy="213.22623"
         r="30" />
      <path
         d="m 311.23051,201.97623 h -9 l -3.33281,-4.99922 c -0.49922,-0.75234 0.0352,-1.75078 0.93515,-1.75078 h 13.79532 c 0.9,0 1.43437,0.99844 0.93515,1.75078 z m -9,2.25 h 9 c 0.26719,0.17578 0.56953,0.37266 0.91406,0.59062 3.98672,2.55235 12.58594,8.05078 12.58594,19.65938 0,3.72656 -3.02344,6.75 -6.75,6.75 h -22.5 c -3.72656,0 -6.75,-3.02344 -6.75,-6.75 0,-11.6086 8.59922,-17.10703 12.58594,-19.65938 v 0 0 c 0.3375,-0.21796 0.64687,-0.41484 0.91406,-0.59062 z m 5.90625,6.1875 c 0,-0.77344 -0.63281,-1.40625 -1.40625,-1.40625 -0.77344,0 -1.40625,0.63281 -1.40625,1.40625 v 0.98437 c -0.53437,0.11953 -1.06875,0.30938 -1.56094,0.59766 -0.97734,0.58359 -1.82109,1.60312 -1.81406,3.08672 0.007,1.42734 0.84375,2.32734 1.73672,2.86172 0.77344,0.46406 1.73672,0.75937 2.50313,0.98437 l 0.11953,0.0352 c 0.88593,0.26719 1.53281,0.47812 1.96875,0.75234 0.35859,0.225 0.40781,0.37969 0.41484,0.57656 0.007,0.35157 -0.12656,0.5625 -0.41484,0.73829 -0.35157,0.21796 -0.90703,0.35156 -1.50469,0.33046 -0.78047,-0.0281 -1.51172,-0.27421 -2.46797,-0.59765 -0.16172,-0.0563 -0.33047,-0.1125 -0.50625,-0.16875 -0.73828,-0.2461 -1.53281,0.15469 -1.77891,0.88594 -0.24609,0.73125 0.15469,1.53281 0.88594,1.7789 0.13359,0.0422 0.28125,0.0914 0.42891,0.14766 v 0 0 c 0.58359,0.2039 1.25859,0.43594 1.98281,0.59062 v 1.04063 c 0,0.77344 0.63281,1.40625 1.40625,1.40625 0.77344,0 1.40625,-0.63281 1.40625,-1.40625 v -0.97031 c 0.5625,-0.11954 1.125,-0.31641 1.63125,-0.63282 1.00547,-0.62578 1.76484,-1.69453 1.74375,-3.16406 -0.0211,-1.42734 -0.82266,-2.34844 -1.72969,-2.925 -0.80859,-0.50625 -1.82109,-0.81562 -2.60859,-1.05469 v 0 l -0.0492,-0.0141 c -0.9,-0.27422 -1.53984,-0.47109 -1.98984,-0.73828 -0.36563,-0.21797 -0.37266,-0.34453 -0.37266,-0.47109 0,-0.26016 0.0984,-0.45704 0.43594,-0.65391 0.37969,-0.225 0.95625,-0.35859 1.51172,-0.35156 0.675,0.007 1.42031,0.15468 2.19375,0.36562 0.75234,0.19688 1.51875,-0.24609 1.72265,-0.99844 0.20391,-0.75234 -0.24609,-1.51875 -0.99844,-1.72265 -0.45703,-0.11953 -0.96328,-0.23906 -1.48359,-0.33047 z"
         id="path1-8"
         style="fill:#ffffff;fill-opacity:1;stroke-width:0.0703125" />
    </g>
  </g>
</svg>
