<?xml version="1.0" encoding="UTF-8" standalone="no"?>
<!-- Created with Inkscape (http://www.inkscape.org/) -->

<svg
   width="60"
   height="60"
   viewBox="0 0 60 59.999999"
   version="1.1"
   id="svg1"
   inkscape:version="1.3.2 (1:1.3.2+202311252150+091e20ef0f)"
   sodipodi:docname="icon-inspection.svg"
   inkscape:export-filename="moto-laws--us--vt.png"
   inkscape:export-xdpi="80"
   inkscape:export-ydpi="80"
   xmlns:inkscape="http://www.inkscape.org/namespaces/inkscape"
   xmlns:sodipodi="http://sodipodi.sourceforge.net/DTD/sodipodi-0.dtd"
   xmlns="http://www.w3.org/2000/svg"
   xmlns:svg="http://www.w3.org/2000/svg">
  <sodipodi:namedview
     id="namedview1"
     pagecolor="#505050"
     bordercolor="#ffffff"
     borderopacity="1"
     inkscape:showpageshadow="0"
     inkscape:pageopacity="0"
     inkscape:pagecheckerboard="1"
     inkscape:deskcolor="#505050"
     inkscape:document-units="px"
     inkscape:zoom="2.8284271"
     inkscape:cx="-78.312077"
     inkscape:cy="103.41437"
     inkscape:window-width="1850"
     inkscape:window-height="1011"
     inkscape:window-x="70"
     inkscape:window-y="32"
     inkscape:window-maximized="1"
     inkscape:current-layer="layer1"
     showguides="true" />
  <defs
     id="defs1">
    <rect
       x="350.34531"
       y="319.13232"
       width="421.26819"
       height="31.908958"
       id="rect7" />
    <rect
       x="263.26483"
       y="335.19281"
       width="51.565868"
       height="61.291256"
       id="rect3" />
    <rect
       x="82.636536"
       y="95.108734"
       width="383.16449"
       height="51.101845"
       id="rect2" />
    <rect
       x="263.26483"
       y="335.19281"
       width="122.28263"
       height="69.751892"
       id="rect3-3" />
    <rect
       x="263.26483"
       y="335.19281"
       width="51.565868"
       height="61.291256"
       id="rect3-4" />
    <rect
       x="263.26483"
       y="335.19281"
       width="51.565868"
       height="61.291256"
       id="rect3-6" />
    <rect
       x="263.26483"
       y="335.19281"
       width="51.565868"
       height="61.291256"
       id="rect3-9" />
    <rect
       x="263.26483"
       y="335.19281"
       width="51.565868"
       height="61.291256"
       id="rect3-66" />
    <rect
       x="350.34531"
       y="319.13232"
       width="421.26819"
       height="31.908958"
       id="rect7-2" />
    <rect
       x="350.34531"
       y="319.13232"
       width="421.26819"
       height="31.908958"
       id="rect7-2-6" />
    <rect
       x="350.34531"
       y="319.13232"
       width="421.26819"
       height="31.908958"
       id="rect7-4" />
    <rect
       x="350.34531"
       y="319.13232"
       width="421.26819"
       height="31.908958"
       id="rect7-4-1" />
    <rect
       x="263.26483"
       y="335.19281"
       width="51.565868"
       height="61.291256"
       id="rect3-1" />
    <rect
       x="82.636536"
       y="95.108734"
       width="297.49365"
       height="24.691488"
       id="rect2-6" />
    <rect
       x="82.636536"
       y="95.108734"
       width="577.29626"
       height="81.933601"
       id="rect2-9" />
    <rect
       x="82.636536"
       y="95.108734"
       width="335.77216"
       height="67.819557"
       id="rect2-96" />
  </defs>
  <g
     inkscape:label="Layer 1"
     inkscape:groupmode="layer"
     id="layer1"
     transform="translate(-213.4259,-83.226147)">
    <text
       xml:space="preserve"
       transform="translate(-188.98847,166.13159)"
       id="text2-3"
       style="font-style:normal;font-variant:normal;font-weight:normal;font-stretch:normal;font-size:42.6667px;font-family:FontAwesome;-inkscape-font-specification:FontAwesome;text-align:start;letter-spacing:5px;white-space:pre;shape-inside:url(#rect3-4);display:inline;fill:#ffffff;fill-opacity:1;stroke:none;stroke-width:45" />
    <text
       xml:space="preserve"
       style="font-style:normal;font-variant:normal;font-weight:normal;font-stretch:normal;font-size:42.6667px;font-family:FontAwesome;-inkscape-font-specification:FontAwesome;text-align:start;letter-spacing:5px;text-anchor:start;opacity:1;fill:#ffffff;fill-opacity:1;stroke:none;stroke-width:45"
       x="456.84335"
       y="423.60608"
       id="text5"><tspan
         sodipodi:role="line"
         id="tspan5"
         x="456.84335"
         y="423.60608"></tspan></text>
    <!--!Font Awesome Free 6.5.1 by @fontawesome - https://fontawesome.com License - https://fontawesome.com/license/free Copyright 2024 Fonticons, Inc.-->
    <!--!Font Awesome Free 6.5.1 by @fontawesome - https://fontawesome.com License - https://fontawesome.com/license/free Copyright 2024 Fonticons, Inc.-->
    <circle
       style="fill:#c41f41;fill-opacity:1;stroke:none;stroke-width:31.4128"
       id="path2-44-4"
       cx="243.4259"
       cy="113.22615"
       r="30" />
    <path
       d="m 272.40849,375.57434 c 0,0.83334 -0.69048,1.52381 -1.52381,1.52381 -0.83334,0 -1.52381,-0.69047 -1.52381,-1.52381 0,-0.83333 0.69047,-1.52381 1.52381,-1.52381 0.83333,0 1.52381,0.69048 1.52381,1.52381 z m 15.33334,-10.00001 c -3.11905,-1.23809 -5.61905,-3.73809 -6.85714,-6.85714 l -16.2143,16.21429 c -0.57143,0.57143 -0.90476,1.35715 -0.90476,2.16667 0,0.80953 0.33333,1.59524 0.90476,2.14286 l 2.52381,2.57143 c 0.57143,0.54762 1.35714,0.88095 2.16667,0.88095 0.80952,0 1.59524,-0.33333 2.14286,-0.88095 z m 15.09525,-10.35715 c 0,-0.47619 -0.28571,-0.83333 -0.7619,-0.83333 -0.47619,0 -6.00001,3.47619 -6.78572,3.92857 l -4.59524,-2.54762 v -5.33333 l 6.97619,-4.02382 c 0.21429,-0.14285 0.38096,-0.40476 0.38096,-0.66666 0,-0.28572 -0.14286,-0.5 -0.38096,-0.66667 -1.45238,-0.97619 -3.71429,-1.5 -5.45238,-1.5 -5.88096,0 -10.66668,4.78572 -10.66668,10.66667 0,5.88096 4.78572,10.66668 10.66668,10.66668 4.5,0 8.57143,-2.92858 10.07143,-7.16667 0.26191,-0.76191 0.54762,-1.7381 0.54762,-2.52382 z"
       id="text2"
       style="font-weight:bold;font-size:42.6667px;font-family:Ubuntu;-inkscape-font-specification:'Ubuntu Bold';letter-spacing:5px;white-space:pre;fill:#ffffff;stroke-width:45"
       transform="matrix(0.92138871,0,0,0.92138871,-17.60476,-221.36128)"
       aria-label="" />
    <!--!Font Awesome Free 6.5.1 by @fontawesome - https://fontawesome.com License - https://fontawesome.com/license/free Copyright 2024 Fonticons, Inc.-->
  </g>
</svg>
